<?xml version="1.0" encoding="iso-8859-1"?>
<!-- Uploaded to: SVG Repo, www.svgrepo.com, Generator: SVG Repo Mixer Tools -->
<svg height="800px" width="800px" version="1.1" id="Layer_1" xmlns="http://www.w3.org/2000/svg" xmlns:xlink="http://www.w3.org/1999/xlink" 
	 viewBox="0 0 261.722 261.722" xml:space="preserve">
<g>
	<path style="fill:#1D1D1B;" d="M182.615,98.604h-0.04c-26.683,2.411-53.728,4.862-80.532,5.505
		c-0.121,1.527-0.241,3.054-0.321,4.541c26.643-3.335,53.608-4.662,80.371-6.671c0.04,0,0.04,0.04,0.08,0.04
		C183.137,100.894,182.936,99.849,182.615,98.604z M222.077,216.227c0,0,0.161,0.201,0.522,0.804
		c0.723,1.206,1.366,2.451,2.09,3.697c0.804,1.366,1.607,2.693,2.451,4.059c0.161,0.281,1.045,2.21,1.366,2.25
		c0.563,0.04,0.362-0.322,0.442-1.125c0.281-2.532,0.281-5.425,1.005-7.917c-1.567-0.442-3.175-0.844-4.742-1.125
		c-0.763-0.161-1.527-0.322-2.291-0.402C222.358,216.428,222.077,216.227,222.077,216.227z M247.474,215.624
		c0.281,3.818-6.952,3.054-11.292,2.21c6.51,12.699,7.675,28.934,4.983,42.878c-0.281,1.567-2.893,1.206-2.773-0.362
		c0.442-4.501,0.764-9.042,0.764-13.583c0-9.725-1.487-19.329-6.59-27.969c0.08,2.371-0.362,4.782-0.603,7.113
		c-0.161,1.567-0.201,3.536-1.768,4.38c-3.737,2.049-6.832-5.706-8.198-7.997c-1.206-2.05-5.907-8.278-0.884-9.082
		c2.09-0.362,4.822,0.723,6.832,1.326c0.844,0.241,1.607,0.563,2.411,0.884c-5.787-7.836-13.944-12.498-22.825-13.985
		c0.924,1.929,1.648,4.019,2.451,5.747c0.844,1.808,2.21,4.179,0.764,6.028c-1.487,1.889-4.139,1.085-6.108,0.723
		c-3.697-0.683-7.314-1.728-10.81-3.094c-0.965-0.402-1.607-1.447-1.005-2.451c1.728-2.773,3.858-5.345,6.39-7.475
		c-5.907,0.322-11.855,1.929-17.4,4.903c-4.059,2.21-7.796,4.903-11.332,7.836c4.742,1.407,9.444,3.456,14.065,5.023
		c1.366,0.482,1.567,2.17,0.402,2.974c-5.144,3.536-10.89,6.189-17.039,7.515c-0.924,0.201-1.969-0.442-1.929-1.487
		c0.121-3.536,0.241-7.073,0.442-10.569c-8.077,7.193-15.471,15.23-24.473,21.098c4.903,1.808,9.725,4.219,14.467,6.389
		c1.206,0.563,0.884,2.17,0,2.773c-5.465,3.858-11.212,7.595-18.124,7.635c-0.804,0-1.648-0.764-1.567-1.607
		c0.402-4.179,0.683-8.359,0.964-12.578c-10.689,5.706-22.383,5.465-30.38-0.362c0.161,1.969,0.201,3.898,0.321,5.827
		c0.121,2.049,0.844,4.983-0.482,6.791c-2.853,3.818-7.274-3.175-8.76-5.063c-1.808-2.291-3.496-4.661-5.023-7.153
		c-0.844-1.406-2.049-3.134-0.884-4.702c1.165-1.607,3.496-0.964,5.184-0.723c1.728,0.241,3.496,0.442,5.224,0.723
		c-2.291-2.974-3.978-6.671-4.822-11.091c-1.326,1.326-3.456,1.929-5.304,1.768c-2.13-0.241-4.782-1.728-5.184-3.978
		c-0.241-0.281-0.402-0.603-0.402-1.085c0.08-2.532,0.161-5.023,0.241-7.555c-24.754-30.26-48.142-62.81-65.181-98.053
		c-0.08-0.121-0.04-0.201-0.04-0.281c-1.447,0-2.934,0-4.42-0.04c-0.563,0.321-1.286,0.161-1.929-0.201
		c-0.04-0.04-0.12-0.04-0.161-0.08c-0.362-0.241-0.643-0.522-0.804-0.844c-1.125-1.969-0.764-5.907,1.005-7.354
		c0.442-0.362,1.125-0.362,1.567-0.04c2.009-0.281,4.099-0.482,6.148-0.723c26.442-25.92,46.776-57.988,71.731-85.314
		c-0.04-6.108-0.241-12.176-0.643-18.285c-0.442-0.362-0.563-1.165,0.04-1.527c2.371-1.487,6.671-2.411,8.72,0.04
		c0.442,0.522,0.362,1.366-0.121,1.728c0.442,5.425,0.723,10.85,0.965,16.275c22.584,25.116,44.405,50.955,66.146,76.835
		c4.059-0.201,8.118-0.402,12.136-0.603c0.281,0,0.522,0.08,0.723,0.201c0.322-0.08,0.643-0.12,0.965,0.08
		c3.014,1.889,1.648,6.59-1.005,8.077c-0.201,0.402-0.603,0.723-1.165,0.763c-2.813,0.241-5.586,0.482-8.399,0.723
		c0,0.04,0,0.08-0.04,0.121c-24.634,37.413-48.785,75.469-75.067,111.716c-0.08,0.08-0.161,0.161-0.281,0.241
		c0.08,1.165,0.08,2.371,0.161,3.536c0.08,0.04,0.161,0.12,0.241,0.161c0.362,0,0.763,0.201,0.884,0.643
		c0.884,3.818,2.893,7.073,5.666,9.725c-0.201-3.054-0.241-6.068,0.08-9.082c0.201-1.607,0-4.661,1.728-5.505
		c2.09-1.045,4.26,1.889,5.546,3.094c2.853,2.652,5.546,5.465,8.278,8.278c0.683,0.723,0.442,1.728-0.321,2.291
		c-2.612,1.969-6.309,4.059-9.926,4.822c7.756,4.219,17.883,4.983,25.639,1.527c-2.17-1.165-4.139-2.693-5.948-4.38
		c-0.924-0.884-2.853-2.25-2.853-3.777c-0.04-1.728,2.25-2.532,3.416-3.215c2.411-1.447,4.822-2.893,7.274-4.3
		c2.612-1.447,5.586-1.768,5.304,2.17c-0.281,3.577-1.286,7.434-2.773,10.89c4.461-3.094,8.479-6.952,12.498-10.488
		c3.898-3.416,7.595-6.992,11.453-10.408c-3.697-1.205-7.314-2.813-10.77-4.621c-1.085-0.563-0.884-2.009,0-2.612
		c2.934-2.09,5.907-4.099,8.841-6.108c1.567-1.045,3.978-3.536,6.068-2.371c2.13,1.206,0.844,4.26,0.482,6.108
		c-0.442,2.13-0.643,4.621-1.286,6.791c1.125-0.924,2.25-1.849,3.416-2.692c8.76-6.39,19.008-11.413,29.777-11.734
		c-1.527-4.099-2.853-8.318-4.179-12.458c-0.402-1.206,0.804-2.09,1.889-1.889c5.747,1.045,11.212,2.773,16.557,5.104
		c1.246,0.522,0.884,2.17,0,2.773c-2.853,2.049-5.224,4.621-7.876,6.872c0.804,0.12,1.648,0.161,2.451,0.362
		c9.926,2.25,17.28,7.675,22.464,14.788c0.161-3.938,0.844-7.796,2.049-11.614c0.321-0.965,1.487-1.286,2.21-0.603
		c2.572,2.371,4.822,5.023,6.711,7.957C244.822,209.757,247.273,213.093,247.474,215.624z M241.768,215.423
		c0.08,0,2.451-0.08,2.853,0.201c0-0.563-1.326-2.813-1.648-3.335c-1.768-3.376-4.019-6.349-6.59-9.082
		c-1.165,3.657-1.889,7.394-2.17,11.252c0,0.04,0,0.04,0.04,0.08C236.745,215.062,239.236,215.464,241.768,215.423z
		 M207.851,210.762c0.161-0.643-1.165-2.693-1.487-3.416c-0.522-1.206-1.085-2.451-1.607-3.657
		c-0.402-0.924-0.844-1.808-1.206-2.733c-0.161,0-0.322,0-0.482-0.04c-2.451,2.21-4.541,4.581-6.309,7.394
		C200.497,209.516,207.61,211.686,207.851,210.762z M203.632,195.974c1.969-2.733,4.822-5.023,7.675-7.033
		c-3.456-1.366-6.992-2.451-10.609-3.295C201.743,189.062,202.748,192.477,203.632,195.974z M180.445,220.648
		c-2.371-0.844-4.742-1.648-7.113-2.492c-1.527-0.522-3.255-0.964-4.782-1.688c0.201,3.054,0.362,6.108,0.442,9.162
		C173.05,224.425,176.828,222.818,180.445,220.648z M166.219,203.207c0.04-0.241,0.161-1.366,0.442-1.969
		c-1.688,0.924-6.309,4.26-9.122,6.269c2.371,1.246,4.742,2.411,7.193,3.456c0.08-1.246,0.402-2.451,0.643-3.737
		C165.656,205.899,165.938,204.573,166.219,203.207z M152.355,246.326c-4.219-1.848-8.56-3.536-12.658-5.586
		c0.12,3.657,0.161,7.314,0.201,10.93C144.519,251.189,148.537,248.898,152.355,246.326z M140.661,223.38
		c-0.723,0.402-1.407,0.804-2.09,1.206c-1.045,0.603-2.09,1.246-3.135,1.849c-1.005,0.603-3.617,1.607-4.822,2.652
		c1.527,2.492,4.26,4.541,6.43,6.39c1.527-3.416,3.456-7.434,3.376-11.011C140.5,224.103,140.54,223.742,140.661,223.38z
		 M166.621,96.554c-21.017-24.353-41.994-48.745-62.248-73.781c0.884,26.442-0.482,52.925-2.21,79.367
		C123.421,99.247,145.081,97.679,166.621,96.554z M117.514,229.207c-1.286-1.407-2.612-2.773-3.938-4.139
		c-0.844-0.804-3.576-4.219-5.264-5.104c-0.723,1.929-0.723,5.184-0.884,6.751c-0.201,2.049-0.241,4.059-0.281,6.108
		c1.808-0.563,3.737-0.723,5.546-1.326C114.379,230.935,115.987,230.091,117.514,229.207z M169.916,105.917
		c-22.745,1.929-45.53,4.019-68.316,4.661c-2.331,34.359-4.863,68.718-3.456,103.116
		C120.809,177.046,145.724,141.562,169.916,105.917z M104.855,250.907c0.322-0.121,0-2.411-0.04-2.733
		c-0.161-3.054-0.563-6.189-0.603-9.283c-2.572,0.08-5.224-0.121-7.595-0.523c-0.08-0.04-0.884,0-1.246-0.201
		c0.322,0.603,1.165,1.808,1.286,2.049c0.884,1.407,1.808,2.813,2.773,4.139c1.246,1.728,2.572,3.335,3.938,4.903
		C103.489,249.42,104.695,250.907,104.855,250.907z M101.721,3.243c-0.764-0.161-1.527-0.442-2.331-0.523
		c-1.005-0.121-2.009-0.04-2.974,0.201c4.863,35.404-1.407,71.571-2.692,107.095c-1.366,37.252-2.13,74.504-3.416,111.756
		c0,0.121-0.04,0.201-0.08,0.321c0.764,0.563,1.527,1.125,2.492,1.246c1.246,0.161,2.049-0.281,2.813-0.844
		c-0.04-0.08-0.08-0.161-0.08-0.281c-2.451-36.489-1.205-72.455,1.808-108.863C100.355,76.622,99.792,39.973,101.721,3.243z
		 M91.152,103.225c1.407-26.121,4.179-52.241,4.219-78.362c-11.091,14.829-23.348,28.853-35.042,43.2
		c-10.569,12.9-20.535,27.407-33.435,38.136C48.033,103.747,70.215,102.662,91.152,103.225z M90.911,108.409
		c0.04-0.844,0.08-1.688,0.121-2.492c-23.71,2.692-49.268,3.536-73.138,2.371c-0.08,1.085-0.603,2.049-0.683,3.175
		c-0.08,0.563-0.121,1.206,0,1.728c0.04,0.321,0.161,0.563,0.321,0.804c0.04,0,0.08,0,0.08,0c0.121-0.04,0.161-0.04,0.281-0.04
		C42.246,111.985,66.599,110.9,90.911,108.409z M90.67,113.794c0.04-0.723,0.08-1.406,0.08-2.09
		c-22.062,2.25-44.365,4.26-66.588,4.22c20.093,32.028,39.904,63.413,63.413,93.07C88.5,177.247,89.585,145.5,90.67,113.794z"/>
	<path style="fill:#F39200;" d="M244.621,215.624c-0.402-0.281-2.773-0.201-2.853-0.201c-2.532,0.04-5.023-0.362-7.515-0.884
		c-0.04-0.04-0.04-0.04-0.04-0.08c0.281-3.858,1.005-7.595,2.17-11.252c2.572,2.733,4.822,5.706,6.59,9.082
		C243.295,212.811,244.621,215.062,244.621,215.624z"/>
	<path style="fill:#F39200;" d="M229.953,217.995c-0.723,2.492-0.723,5.385-1.005,7.917c-0.08,0.804,0.12,1.165-0.442,1.125
		c-0.322-0.04-1.206-1.969-1.366-2.25c-0.844-1.366-1.648-2.692-2.451-4.059c-0.723-1.246-1.366-2.492-2.09-3.697
		c-0.362-0.603-0.522-0.804-0.522-0.804s0.281,0.201,0.844,0.241c0.763,0.08,1.527,0.241,2.291,0.402
		C226.779,217.151,228.386,217.553,229.953,217.995z"/>
	<path style="fill:#F39200;" d="M206.364,207.346c0.322,0.723,1.648,2.773,1.487,3.416c-0.241,0.924-7.354-1.246-11.091-2.451
		c1.768-2.813,3.858-5.184,6.309-7.394c0.161,0.04,0.321,0.04,0.482,0.04c0.362,0.924,0.804,1.808,1.206,2.733
		C205.279,204.895,205.842,206.14,206.364,207.346z"/>
	<path style="fill:#F39200;" d="M211.307,188.941c-2.853,2.009-5.706,4.3-7.675,7.033c-0.884-3.496-1.889-6.912-2.934-10.328
		C204.315,186.49,207.851,187.575,211.307,188.941z"/>
	<path style="fill:#33AA6C;" d="M182.615,98.604c0.322,1.246,0.522,2.29-0.442,3.416c-0.04,0-0.04-0.04-0.08-0.04
		c-26.764,2.009-53.728,3.335-80.371,6.671c0.08-1.487,0.201-3.014,0.321-4.541c26.804-0.643,53.849-3.094,80.532-5.505
		L182.615,98.604L182.615,98.604z"/>
	<path style="fill:#F39200;" d="M173.332,218.156c2.371,0.844,4.742,1.648,7.113,2.492c-3.617,2.17-7.394,3.777-11.453,4.983
		c-0.08-3.054-0.241-6.108-0.442-9.162C170.077,217.192,171.805,217.634,173.332,218.156z"/>
	<path style="fill:#F39200;" d="M166.661,201.238c-0.281,0.603-0.402,1.728-0.442,1.969c-0.281,1.366-0.563,2.692-0.844,4.019
		c-0.241,1.286-0.563,2.492-0.643,3.737c-2.451-1.045-4.822-2.21-7.193-3.456C160.352,205.498,164.973,202.162,166.661,201.238z"/>
	<path style="fill:#F39200;" d="M139.696,240.74c4.099,2.049,8.439,3.737,12.658,5.586c-3.818,2.572-7.836,4.863-12.458,5.345
		C139.857,248.054,139.817,244.397,139.696,240.74z"/>
	<path style="fill:#1D1D1B;" d="M139.777,140.557c0.402-0.603,1.407-0.241,1.206,0.482c-1.125,3.858-3.335,7.635-5.184,11.172
		c-0.281,0.522-1.165,0.161-0.964-0.402C136.24,148.072,137.647,143.933,139.777,140.557z"/>
	<path style="fill:#F39200;" d="M138.571,224.586c0.683-0.402,1.366-0.804,2.09-1.206c-0.12,0.362-0.161,0.723-0.241,1.085
		c0.08,3.576-1.848,7.595-3.376,11.011c-2.17-1.849-4.903-3.898-6.43-6.39c1.206-1.045,3.818-2.049,4.822-2.652
		C136.481,225.831,137.526,225.188,138.571,224.586z"/>
	<path style="fill:#1D1D1B;" d="M138.25,134.489c0.522-0.804,1.768-0.121,1.286,0.764c-1.286,2.492-2.371,5.104-3.094,7.836
		c-0.201,0.723-1.447,0.563-1.326-0.201C135.477,139.834,136.441,137.061,138.25,134.489z"/>
	<path style="fill:#1D1D1B;" d="M137.165,78.792c0.402,0.442-0.201,1.045-0.643,0.643c-1.286-1.206-2.13-2.532-2.692-4.179
		c-0.241-0.683,0.804-0.965,1.045-0.322C135.396,76.381,136.16,77.667,137.165,78.792z"/>
	<path style="fill:#1D1D1B;" d="M125.712,49.778c0.884,0.603,0.08,2.049-0.844,1.447c-2.692-1.768-4.742-4.019-6.309-6.872
		c-0.482-0.884,0.844-1.648,1.366-0.804C121.452,46.001,123.421,48.09,125.712,49.778z"/>
	<path style="fill:#F39200;" d="M104.373,22.773c20.254,25.036,41.231,49.428,62.248,73.781c-21.54,1.125-43.2,2.692-64.458,5.586
		C103.891,75.698,105.257,49.215,104.373,22.773z M136.522,79.435c0.442,0.402,1.045-0.201,0.643-0.643
		c-1.005-1.125-1.768-2.411-2.291-3.858c-0.241-0.643-1.286-0.362-1.045,0.322C134.392,76.903,135.236,78.229,136.522,79.435z
		 M124.868,51.225c0.924,0.603,1.728-0.844,0.844-1.447c-2.291-1.688-4.26-3.778-5.787-6.229c-0.522-0.844-1.848-0.08-1.366,0.804
		C120.126,47.206,122.175,49.457,124.868,51.225z M110.602,66.535c0.08-0.965-1.567-1.206-1.768-0.241
		c-0.683,3.576-0.884,7.193-0.563,10.81c0.08,1.246,2.009,1.286,1.969,0C110.12,73.568,110.28,70.072,110.602,66.535z
		 M107.025,73.086c0.121-0.884-1.407-1.125-1.567-0.201c-0.603,3.134-0.965,6.269-0.522,9.444c0.12,0.964,1.527,0.643,1.607-0.201
		C106.704,79.114,106.704,76.1,107.025,73.086z"/>
	<path style="fill:#F39200;" d="M113.576,225.068c1.326,1.366,2.652,2.733,3.938,4.139c-1.527,0.884-3.134,1.728-4.822,2.291
		c-1.808,0.603-3.737,0.763-5.546,1.326c0.04-2.049,0.08-4.059,0.281-6.108c0.161-1.567,0.161-4.822,0.884-6.751
		C109.999,220.848,112.732,224.264,113.576,225.068z"/>
	<path style="fill:#1D1D1B;" d="M108.834,66.294c0.201-0.965,1.848-0.723,1.768,0.241c-0.321,3.536-0.482,7.032-0.362,10.569
		c0.04,1.286-1.889,1.246-1.969,0C107.95,73.488,108.151,69.871,108.834,66.294z"/>
	<path style="fill:#F39200;" d="M101.6,110.579c22.785-0.643,45.571-2.733,68.316-4.661
		c-24.192,35.645-49.107,71.129-71.772,107.778C96.738,179.296,99.27,144.938,101.6,110.579z M140.982,141.04
		c0.201-0.723-0.804-1.085-1.206-0.482c-2.13,3.376-3.536,7.515-4.943,11.252c-0.201,0.563,0.683,0.924,0.964,0.402
		C137.647,148.675,139.857,144.898,140.982,141.04z M139.536,135.253c0.482-0.884-0.764-1.567-1.286-0.764
		c-1.808,2.572-2.773,5.345-3.135,8.399c-0.121,0.764,1.125,0.924,1.326,0.201C137.165,140.357,138.25,137.744,139.536,135.253z
		 M109.879,157.636c0.161-0.884-1.045-1.206-1.366-0.362c-0.482,1.326-0.804,2.652-1.085,3.978
		c-0.201,0.965,1.165,1.326,1.447,0.402C109.276,160.329,109.637,159.043,109.879,157.636z"/>
	<path style="fill:#1D1D1B;" d="M108.512,157.275c0.322-0.844,1.527-0.522,1.366,0.362c-0.241,1.407-0.603,2.693-1.005,4.019
		c-0.281,0.924-1.648,0.563-1.447-0.402C107.709,159.927,108.03,158.601,108.512,157.275z"/>
	<path style="fill:#1D1D1B;" d="M105.458,72.885c0.161-0.924,1.688-0.683,1.567,0.201c-0.322,3.014-0.322,6.028-0.482,9.042
		c-0.08,0.844-1.487,1.165-1.607,0.201C104.494,79.154,104.855,76.019,105.458,72.885z"/>
	<path style="fill:#F39200;" d="M104.815,248.175c0.04,0.322,0.362,2.612,0.04,2.733c-0.161,0-1.366-1.487-1.487-1.648
		c-1.366-1.567-2.692-3.175-3.938-4.903c-0.964-1.326-1.889-2.733-2.773-4.139c-0.12-0.241-0.964-1.447-1.286-2.049
		c0.362,0.201,1.165,0.161,1.246,0.201c2.371,0.402,5.023,0.603,7.595,0.523C104.253,241.986,104.654,245.121,104.815,248.175z"/>
	<path style="fill:#33AA6C;" d="M99.39,2.721c0.804,0.08,1.567,0.362,2.331,0.523c-1.929,36.73-1.366,73.379-4.461,110.109
		c-3.014,36.408-4.26,72.374-1.808,108.863c0,0.121,0.04,0.201,0.08,0.281c-0.764,0.563-1.567,1.005-2.813,0.844
		c-0.964-0.121-1.728-0.683-2.492-1.246c0.04-0.12,0.08-0.201,0.08-0.321c1.286-37.252,2.049-74.504,3.416-111.756
		c1.286-35.524,7.555-71.691,2.692-107.095C97.381,2.68,98.385,2.6,99.39,2.721z"/>
	<path style="fill:#F39200;" d="M95.372,24.863c-0.04,26.121-2.813,52.241-4.219,78.362c-20.937-0.563-43.119,0.522-64.257,2.974
		c12.9-10.73,22.866-25.237,33.435-38.136C72.024,53.716,84.28,39.691,95.372,24.863z M66.558,72.362
		c0.402-0.643-0.603-1.246-1.085-0.603c-1.688,2.331-3.215,4.782-4.742,7.193c-0.321,0.563,0.482,1.005,0.844,0.522
		C63.303,77.144,64.991,74.814,66.558,72.362z M62.861,72.282c0.402-0.603-0.523-1.085-0.924-0.563
		c-2.25,3.134-4.3,6.43-6.349,9.685c-0.281,0.402,0.362,0.763,0.643,0.362C58.481,78.631,60.812,75.537,62.861,72.282z"/>
	<path style="fill:#33AA6C;" d="M91.031,105.917c-0.04,0.804-0.08,1.648-0.121,2.492c-24.312,2.492-48.665,3.576-73.017,5.546
		c-0.121,0-0.161,0-0.281,0.04c0,0-0.04,0-0.08,0c-0.161-0.241-0.281-0.482-0.321-0.804c-0.121-0.522-0.08-1.165,0-1.728
		c0.08-1.125,0.603-2.09,0.683-3.175C41.764,109.454,67.322,108.61,91.031,105.917z"/>
	<path style="fill:#F39200;" d="M90.75,111.704c0,0.683-0.04,1.366-0.08,2.09c-1.085,31.706-2.17,63.453-3.094,95.2
		c-23.509-29.657-43.32-61.042-63.413-93.07C46.385,115.964,68.688,113.955,90.75,111.704z M86.852,178.774
		c0.723-3.175,1.005-6.229,0.482-9.444c-0.12-0.884-1.527-0.643-1.527,0.201c0,3.014,0.04,6.068-0.201,9.042
		C85.526,179.337,86.691,179.457,86.852,178.774z M84.401,175.559c0.04-3.737,0-7.555-0.683-11.252
		c-0.161-0.804-1.326-0.522-1.407,0.201c-0.281,3.657,0.04,7.394,0.482,11.051C82.914,176.564,84.361,176.604,84.401,175.559z
		 M73.591,140.196c0.362,1.125,2.17,0.643,1.808-0.522c-0.402-1.406-0.482-2.813-0.442-4.3c0.08-0.965-1.447-1.165-1.688-0.241
		C72.868,136.901,73.028,138.508,73.591,140.196z M46.224,138.548c0.603,0.764,1.688-0.201,1.286-1.005
		c-1.567-3.014-3.416-5.787-5.345-8.64c-0.723-1.085-2.451-0.08-1.728,1.045C42.246,132.922,44.095,135.775,46.224,138.548z
		 M40.277,135.534c0.764,0.683,2.17-0.241,1.487-1.165c-1.808-2.532-4.139-4.903-6.39-7.033c-0.683-0.603-1.969,0.241-1.366,1.045
		C35.897,130.873,37.946,133.485,40.277,135.534z"/>
	<path style="fill:#1D1D1B;" d="M87.334,169.33c0.522,3.215,0.241,6.269-0.482,9.444c-0.161,0.683-1.326,0.563-1.246-0.201
		c0.241-2.974,0.201-6.028,0.201-9.042C85.807,168.687,87.214,168.446,87.334,169.33z"/>
	<path style="fill:#1D1D1B;" d="M83.718,164.307c0.683,3.697,0.723,7.515,0.683,11.252c-0.04,1.045-1.487,1.005-1.607,0
		c-0.442-3.657-0.764-7.394-0.482-11.051C82.392,163.785,83.557,163.503,83.718,164.307z"/>
	<path style="fill:#1D1D1B;" d="M75.399,139.673c0.362,1.165-1.447,1.648-1.808,0.522c-0.563-1.688-0.723-3.295-0.321-5.063
		c0.241-0.924,1.768-0.723,1.688,0.241C74.917,136.86,74.997,138.267,75.399,139.673z"/>
	<path style="fill:#1D1D1B;" d="M65.473,71.76c0.482-0.643,1.487-0.04,1.085,0.603c-1.567,2.451-3.255,4.782-4.983,7.113
		c-0.362,0.482-1.165,0.04-0.844-0.522C62.259,76.542,63.786,74.09,65.473,71.76z"/>
	<path style="fill:#1D1D1B;" d="M61.937,71.719c0.402-0.522,1.326-0.04,0.924,0.563c-2.05,3.255-4.38,6.349-6.631,9.484
		c-0.281,0.402-0.924,0.04-0.643-0.362C57.637,78.149,59.687,74.854,61.937,71.719z"/>
	<path style="fill:#1D1D1B;" d="M47.51,137.544c0.402,0.804-0.683,1.768-1.286,1.005c-2.13-2.773-3.978-5.626-5.787-8.6
		c-0.723-1.125,1.005-2.13,1.728-1.045C44.095,131.757,45.943,134.53,47.51,137.544z"/>
	<path style="fill:#1D1D1B;" d="M41.764,134.369c0.683,0.924-0.723,1.849-1.487,1.165c-2.331-2.049-4.38-4.661-6.269-7.153
		c-0.603-0.804,0.683-1.648,1.366-1.045C37.625,129.466,39.955,131.837,41.764,134.369z"/>
</g>
</svg>